<?xml version="1.0" encoding="utf-8"?>
<!-- Generator: Adobe Illustrator 18.1.0, SVG Export Plug-In . SVG Version: 6.00 Build 0)  -->
<!DOCTYPE svg PUBLIC "-//W3C//DTD SVG 1.1//EN" "http://www.w3.org/Graphics/SVG/1.1/DTD/svg11.dtd">
<svg version="1.1" id="Layer_1" xmlns="http://www.w3.org/2000/svg" xmlns:xlink="http://www.w3.org/1999/xlink" x="0px" y="0px"
	 viewBox="506 0 286 612" enable-background="new 506 0 286 612" xml:space="preserve">
<path d="M683.8,326c12.2-34.7-6.1-67.3-26.5-102c-2-12.2-8.2-20.4-16.3-20.4c-10.2,0-16.3,14.3-16.3,32.6c0,6.1,0,12.2,2,16.3
	c-8.2,16.3-18.4,30.6-32.6,38.8c-12.2,36.7,18.4,53,16.3,77.5c-2,28.6,0,55.1,0,83.6c0,10.2-2,18.4,0,28.6c0,4.1,8.2,4.1,12.2,8.2
	c20.4-12.2-8.2-40.8,20.4-53c6.1,77.5,6.1,77.5,46.9,114.2C661.4,468.8,655.3,399.4,683.8,326z"/>
</svg>
