<?xml version="1.0" encoding="utf-8"?>
<!-- Generator: Adobe Illustrator 18.1.0, SVG Export Plug-In . SVG Version: 6.00 Build 0)  -->
<!DOCTYPE svg PUBLIC "-//W3C//DTD SVG 1.1//EN" "http://www.w3.org/Graphics/SVG/1.1/DTD/svg11.dtd">
<svg version="1.1" id="Layer_1" xmlns="http://www.w3.org/2000/svg" xmlns:xlink="http://www.w3.org/1999/xlink" x="0px" y="0px"
	 viewBox="510 0 282 612" enable-background="new 510 0 282 612" xml:space="preserve">
<path d="M740.8,344.5c-10.2,0-18.4,0-34.7,0c-8.2,65.3,0,134.6-4.1,199.9c-30.6,6.1-6.1-30.6-30.6-30.6c-4.1,0-10.2,0-18.4,0
	c-18.4,26.5,2,59.2-12.2,89.8c-26.5-6.1-10.2-28.6-12.2-42.8c-2-18.4,0-36.7,0-55.1c-12.2-18.4-26.5-30.6-51-32.6
	c-8.2-18.4-10.2-38.8-26.5-46.9c10.2-46.9,46.9-38.8,73.4-46.9c2-26.5-28.6-4.1-32.6-24.5c18.4-18.4,36.7-38.8,55.1-57.1
	c0-12.2,0-24.5,0-36.7c8.2-8.2,18.4-18.4,26.5-26.5c12.2,8.2,24.5,18.4,28.6,20.4c4.1,24.5-6.1,32.6-16.3,40.8
	C706.1,309.8,734.7,313.9,740.8,344.5z"/>
</svg>
