<?xml version="1.0" encoding="utf-8"?>
<!-- Generator: Adobe Illustrator 18.1.0, SVG Export Plug-In . SVG Version: 6.00 Build 0)  -->
<!DOCTYPE svg PUBLIC "-//W3C//DTD SVG 1.1//EN" "http://www.w3.org/Graphics/SVG/1.1/DTD/svg11.dtd">
<svg version="1.1" id="Layer_1" xmlns="http://www.w3.org/2000/svg" xmlns:xlink="http://www.w3.org/1999/xlink" x="0px" y="0px"
	 viewBox="457 0 335 612" enable-background="new 457 0 335 612" xml:space="preserve">
<path d="M513.5,332.8c32.6-16.3,57.1-22.4,69.4-46.9c8.2-18.4-16.3-22.4-16.3-36.7c6.1-6.1,14.3-14.3,20.4-20.4
	c12.2-6.1,16.3,6.1,18.4,10.2c16.3,40.8,30.6,81.6,73.4,108.1c-18.4,6.1-28.6,10.2-40.8,14.3c8.2,14.3,16.3,24.5,30.6,28.6
	c4.1-4.1,8.2-8.2,18.4-18.4c10.2,10.2,18.4,20.4,28.6,30.6c-16.3,36.7-18.4,46.9-57.1,71.4c-28.6,18.4-12.2,46.9-24.5,65.3
	c-30.6,8.2,8.2-61.2-30.6-34.7c-28.6,6.1-12.2,30.6-34.7,40.8c-10.2-67.3,0-134.6-6.1-199.9C550.3,330.7,536,338.9,513.5,332.8z"/>
</svg>
