<?xml version="1.0" encoding="utf-8"?>
<!-- Generator: Adobe Illustrator 18.1.0, SVG Export Plug-In . SVG Version: 6.00 Build 0)  -->
<!DOCTYPE svg PUBLIC "-//W3C//DTD SVG 1.1//EN" "http://www.w3.org/Graphics/SVG/1.1/DTD/svg11.dtd">
<svg version="1.1" id="Layer_1" xmlns="http://www.w3.org/2000/svg" xmlns:xlink="http://www.w3.org/1999/xlink" x="0px" y="0px"
	 viewBox="486 0 306 612" enable-background="new 486 0 306 612" xml:space="preserve">
<path d="M667.2,545.2c-38.8-28.6-14.3-53-34.7-67.3c-28.6,10.2,2,40.8-26.5,55.1c2-51-51-95.9-6.1-148.9c6.1-6.1,2-28.6-4.1-34.7
	c-18.4-14.3-20.4-42.8-12.2-49c28.6-22.4,6.1-69.4,46.9-85.7c36.7,24.5,30.6,71.4,46.9,106.1c10.2,22.4-22.4,40.8-8.2,63.2
	c14.3,20.4,4.1,42.8,8.2,63.2C681.5,475.9,646.8,496.3,667.2,545.2z"/>
</svg>
