<?xml version="1.0" encoding="utf-8"?>
<!-- Generator: Adobe Illustrator 18.1.0, SVG Export Plug-In . SVG Version: 6.00 Build 0)  -->
<!DOCTYPE svg PUBLIC "-//W3C//DTD SVG 1.1//EN" "http://www.w3.org/Graphics/SVG/1.1/DTD/svg11.dtd">
<svg version="1.1" id="Layer_1" xmlns="http://www.w3.org/2000/svg" xmlns:xlink="http://www.w3.org/1999/xlink" x="0px" y="0px"
	 viewBox="459 0 333 612" enable-background="new 459 0 333 612" xml:space="preserve">
<path d="M560.2,261.3c26.5-24.5,26.5-65.3,40.8-100c12.2-2,26.5-4.1,28.6,14.3c2,20.4-8.2,46.9,28.6,42.8
	c4.1,32.6,40.8,51,18.4,97.9c-22.4,51-24.5,114.2,4.1,167.3c10.2,20.4-2,34.7,6.1,49c-20.4,8.2-30.6,6.1-38.8-4.1
	c-22.4-30.6-16.3-67.3-20.4-100c-65.3,14.3-4.1,93.8-71.4,110.2c-12.2-49,26.5-89.8,18.4-140.8C570.4,353.1,541.8,310.2,560.2,261.3
	z"/>
</svg>
