<?xml version="1.0" encoding="utf-8"?>
<!-- Generator: Adobe Illustrator 18.1.0, SVG Export Plug-In . SVG Version: 6.00 Build 0)  -->
<!DOCTYPE svg PUBLIC "-//W3C//DTD SVG 1.1//EN" "http://www.w3.org/Graphics/SVG/1.1/DTD/svg11.dtd">
<svg version="1.1" id="Layer_1" xmlns="http://www.w3.org/2000/svg" xmlns:xlink="http://www.w3.org/1999/xlink" x="0px" y="0px"
	 viewBox="501 0 291 612" enable-background="new 501 0 291 612" xml:space="preserve">
<path d="M680.8,566.8c-18.4,0-24.5,0-30.6,0c-18.4-14.3,0-36.7-14.3-51c-32.6,6.1,0,36.7-24.5,49c-34.7-20.4-36.7-55.1-18.4-87.7
	c8.2-14.3,10.2-28.6,10.2-42.8c0-8.2-8.2-16.3-14.3-24.5c14.3-30.6,38.8-61.2,36.7-97.9c16.3-10.2,30.6-4.1,46.9-4.1
	c12.2,12.2,12.2,18.4-12.2,83.6c12.2,6.1,24.5,12.2,38.8,18.4c-12.2,12.2-22.4,22.4-34.7,34.7C691,479,674.6,521.9,680.8,566.8z"/>
</svg>
