<?xml version="1.0" encoding="utf-8"?>
<!-- Generator: Adobe Illustrator 18.1.0, SVG Export Plug-In . SVG Version: 6.00 Build 0)  -->
<!DOCTYPE svg PUBLIC "-//W3C//DTD SVG 1.1//EN" "http://www.w3.org/Graphics/SVG/1.1/DTD/svg11.dtd">
<svg version="1.1" id="Layer_1" xmlns="http://www.w3.org/2000/svg" xmlns:xlink="http://www.w3.org/1999/xlink" x="0px" y="0px"
	 viewBox="429 0 363 612" enable-background="new 429 0 363 612" xml:space="preserve">
<path d="M544,253c12.2-12.2,24.5-24.5,34.7-34.7c12.2-22.4-8.2-49,12.2-69.4c6.1,0,12.2,0,26.5,0c-6.1,34.7,16.3,59.2,36.7,85.7
	c14.3,20.4-6.1,61.2,22.4,79.6c-14.3,36.7-26.5,69.4-40.8,104c6.1,8.2,12.2,18.4,18.4,28.6c4.1,14.3-6.1,22.4-16.3,30.6
	c2,14.3,26.5,18.4,12.2,40.8c-34.7-10.2-20.4,59.2-71.4,42.8c0-34.7-2-71.4,0-108.1c2-28.6-2-55.1-18.4-75.5
	C533.8,336.6,550.1,291.8,544,253z"/>
</svg>
