<?xml version="1.0" encoding="utf-8"?>
<!-- Generator: Adobe Illustrator 18.1.0, SVG Export Plug-In . SVG Version: 6.00 Build 0)  -->
<!DOCTYPE svg PUBLIC "-//W3C//DTD SVG 1.1//EN" "http://www.w3.org/Graphics/SVG/1.1/DTD/svg11.dtd">
<svg version="1.1" id="Layer_1" xmlns="http://www.w3.org/2000/svg" xmlns:xlink="http://www.w3.org/1999/xlink" x="0px" y="0px"
	 viewBox="272 0 260 612" enable-background="new 272 0 260 612" xml:space="preserve">
<path d="M294,261.1c28.6-26.5,16.3-61.2,18.4-93.8c18.4-28.6,42.8-49,75.5-61.2c-6.1-6.1-12.2-14.3-20.4-20.4
	c6.1-26.5,18.4-42.8,46.9-44.9c22.4,20.4,2,49,14.3,71.4c12.2,12.2,22.4,30.6,46.9,26.5c18.4,24.5-10.2,63.2,18.4,79.6
	c-10.2,63.2-8.2,130.6-32.6,185.6c-26.5,61.2-4.1,120.4-18.4,181.6c-14.3,16.3-26.5,6.1-38.8-6.1c-22.4-4.1-38.8,30.6-67.3,6.1
	c20.4-26.5,26.5-69.4,10.2-93.8c-26.5-40.8-6.1-79.6-16.3-116.3C320.5,334.6,308.3,301.9,294,261.1z"/>
</svg>
