<?xml version="1.0" encoding="utf-8"?>
<!-- Generator: Adobe Illustrator 18.1.0, SVG Export Plug-In . SVG Version: 6.00 Build 0)  -->
<!DOCTYPE svg PUBLIC "-//W3C//DTD SVG 1.1//EN" "http://www.w3.org/Graphics/SVG/1.1/DTD/svg11.dtd">
<svg version="1.1" id="Layer_1" xmlns="http://www.w3.org/2000/svg" xmlns:xlink="http://www.w3.org/1999/xlink" x="0px" y="0px"
	 viewBox="284 0 261 612" enable-background="new 284 0 261 612" xml:space="preserve">
<path d="M349.1,8.2c26.5,0,44.9,0,63.2,0c22.4,18.4,0,46.9,16.3,71.4c65.3,8.2,65.3,71.4,87.7,116.3
	c-16.3,36.7-26.5,77.5-46.9,112.2c-22.4,34.7,10.2,81.6-28.6,110.2c-2,2-4.1,14.3,0,18.4c46.9,53-18.4,100,0,146.9
	c-36.7,24.5-36.7,24.5-75.5,16.3c-4.1-30.6,28.6-36.7,38.8-61.2c-14.3-38.8-28.6-79.6-44.9-120.4c-14.3,14.3-24.5,28.6-46.9,16.3
	c28.6-73.4,16.3-153,16.3-230.5c0-24.5,20.4-34.7,24.5-57.1c6.1-36.7,28.6-71.4-2-108.1C345,36.7,349.1,24.5,349.1,8.2z"/>
</svg>
