<?xml version="1.0" encoding="utf-8"?>
<!-- Generator: Adobe Illustrator 18.1.0, SVG Export Plug-In . SVG Version: 6.00 Build 0)  -->
<!DOCTYPE svg PUBLIC "-//W3C//DTD SVG 1.1//EN" "http://www.w3.org/Graphics/SVG/1.1/DTD/svg11.dtd">
<svg version="1.1" id="Layer_1" xmlns="http://www.w3.org/2000/svg" xmlns:xlink="http://www.w3.org/1999/xlink" x="0px" y="0px"
	 viewBox="289 0 231 612" enable-background="new 289 0 231 612" xml:space="preserve">
<path d="M394,546.7c-4.1,12.2-8.2,22.4-12.2,34.7c-22.4,4.1-46.9,8.2-69.4-4.1c6.1-14.3,20.4-8.2,30.6-14.3
	c16.3-179.5,10.2-373.3-12.2-440.6c14.3-18.4,36.7-2,51-12.2c-18.4-49-18.4-49,12.2-87.7c44.9,16.3,20.4,59.2,32.6,87.7
	c16.3,2,32.6,4.1,53,6.1c4.1,51-28.6,97.9-20.4,148.9c8.2,51,0,106.1,2,159.1c2,51-12.2,104,14.3,155c-10.2,12.2-26.5,0-40.8,4.1
	C422.5,573.2,408.2,561,394,546.7z M400.1,469.2c0-16.3,12.2-34.7-6.1-55.1C383.8,436.6,381.7,452.9,400.1,469.2z"/>
</svg>
