<?xml version="1.0" encoding="utf-8"?>
<!-- Generator: Adobe Illustrator 18.1.0, SVG Export Plug-In . SVG Version: 6.00 Build 0)  -->
<!DOCTYPE svg PUBLIC "-//W3C//DTD SVG 1.1//EN" "http://www.w3.org/Graphics/SVG/1.1/DTD/svg11.dtd">
<svg version="1.1" id="Layer_1" xmlns="http://www.w3.org/2000/svg" xmlns:xlink="http://www.w3.org/1999/xlink" x="0px" y="0px"
	 viewBox="246 0 273 612" enable-background="new 246 0 273 612" xml:space="preserve">
<path d="M328.7,348.8c-10.2-10.2-22.4-22.4-36.7-36.7c6.1-75.5-18.4-163.2,73.4-230.5c0-8.2,0-30.6,0-46.9
	c18.4-18.4,36.7-12.2,57.1-6.1c0,26.5,0,53,0,79.6c20.4,12.2,42.8,14.3,59.2,40.8c-8.2,65.3,20.4,140.8-40.8,208.1
	c0,67.3,0,138.7,0,210.1c-36.7,0-69.4,0-108.1,0C324.6,493.7,343,420.2,328.7,348.8z"/>
</svg>
