<?xml version="1.0" encoding="utf-8"?>
<!-- Generator: Adobe Illustrator 18.1.0, SVG Export Plug-In . SVG Version: 6.00 Build 0)  -->
<!DOCTYPE svg PUBLIC "-//W3C//DTD SVG 1.1//EN" "http://www.w3.org/Graphics/SVG/1.1/DTD/svg11.dtd">
<svg version="1.1" id="Layer_1" xmlns="http://www.w3.org/2000/svg" xmlns:xlink="http://www.w3.org/1999/xlink" x="0px" y="0px"
	 viewBox="272 0 222 612" enable-background="new 272 0 222 612" xml:space="preserve">
<path d="M363.4,49c22.4-2,36.7-6.1,55.1,2c2,20.4,2,40.8,4.1,61.2c10.2,10.2,22.4,22.4,34.7,34.7c12.2,134.6-16.3,265.2-40.8,403.9
	c-28.6,10.2-71.4-6.1-100,28.6c18.4-85.7,18.4-159.1,0-232.6c-10.2-44.9-16.3-89.8,2-132.6c14.3-34.7,6.1-77.5,44.9-106.1
	C371.5,102,363.4,69.4,363.4,49z M365.4,340.7c-4.1,63.2-2,118.3-2,185.6c40.8-53,40.8-102,34.7-151
	C389.9,365.2,381.7,355,365.4,340.7z"/>
</svg>
