<?xml version="1.0" encoding="utf-8"?>
<!-- Generator: Adobe Illustrator 18.1.0, SVG Export Plug-In . SVG Version: 6.00 Build 0)  -->
<!DOCTYPE svg PUBLIC "-//W3C//DTD SVG 1.1//EN" "http://www.w3.org/Graphics/SVG/1.1/DTD/svg11.dtd">
<svg version="1.1" id="Layer_1" xmlns="http://www.w3.org/2000/svg" xmlns:xlink="http://www.w3.org/1999/xlink" x="0px" y="0px"
	 viewBox="260 0 277 612" enable-background="new 260 0 277 612" xml:space="preserve">
<path d="M453.1,559c-10.2,10.2-18.4,18.4-26.5,26.5c-4.1-4.1-8.2-8.2-18.4-16.3c-12.2-8.2-14.3,22.4-32.6,16.3c-8.2-2-18.4,0-30.6,0
	c0-77.5,0-155,0-234.6c-16.3-12.2-30.6-22.4-42.8-32.6c6.1-44.9-12.2-87.7,10.2-122.4c14.3-20.4,0-42.8,18.4-59.2
	c4.1-4.1,8.2-10.2,14.3-12.2c10.2-6.1,20.4-8.2,32.6-14.3c12.2-28.6-14.3-71.4,34.7-85.7c32.6,16.3,26.5,49,26.5,79.6
	c14.3,14.3,22.4,40.8,49,30.6c4.1,10.2,8.2,14.3,8.2,20.4c0,46.9,10.2,95.9-2,138.7c-12.2,38.8-16.3,79.6-30.6,118.3
	C438.8,454.9,453.1,510,453.1,559z"/>
</svg>
