<?xml version="1.0" encoding="utf-8"?>
<!-- Generator: Adobe Illustrator 18.1.0, SVG Export Plug-In . SVG Version: 6.00 Build 0)  -->
<!DOCTYPE svg PUBLIC "-//W3C//DTD SVG 1.1//EN" "http://www.w3.org/Graphics/SVG/1.1/DTD/svg11.dtd">
<svg version="1.1" id="Layer_1" xmlns="http://www.w3.org/2000/svg" xmlns:xlink="http://www.w3.org/1999/xlink" x="0px" y="0px"
	 viewBox="272 0 247 612" enable-background="new 272 0 247 612" xml:space="preserve">
<path d="M308.3,204c14.3-24.5,26.5-40.8,22.4-67.3c20.4-16.3,40.8-34.7,57.1-49c0-22.4,0-34.7,0-46.9c8.2-14.3,20.4-10.2,32.6-10.2
	s24.5,0,32.6,0c32.6,32.6-16.3,40.8-6.1,71.4c8.2,2,26.5,10.2,30.6,12.2c2,28.6,2,36.7,4.1,46.9c12.2,95.9-22.4,187.7-20.4,283.6
	c0,30.6-20.4,61.2-16.3,95.9c2,14.3,10.2,20.4,24.5,36.7c-53,6.1-100,2-144.8,4.1c-16.3-12.2,2-16.3,2-22.4
	c8.2-83.6,22.4-167.3,22.4-250.9C345,275.4,336.8,234.6,308.3,204z M406.2,418.2c-6.1-8.2-12.2-8.2-18.4,0
	C394,428.4,400.1,428.4,406.2,418.2z"/>
</svg>
