<?xml version="1.0" encoding="utf-8"?>
<!-- Generator: Adobe Illustrator 18.1.0, SVG Export Plug-In . SVG Version: 6.00 Build 0)  -->
<!DOCTYPE svg PUBLIC "-//W3C//DTD SVG 1.1//EN" "http://www.w3.org/Graphics/SVG/1.1/DTD/svg11.dtd">
<svg version="1.1" id="Layer_1" xmlns="http://www.w3.org/2000/svg" xmlns:xlink="http://www.w3.org/1999/xlink" x="0px" y="0px"
	 viewBox="270 0 261 612" enable-background="new 270 0 261 612" xml:space="preserve">
<path d="M428.6,436.6c44.9,38.8-16.3,93.8,6.1,144.8c-28.6,26.5-28.6,26.5-91.8,26.5c16.3-18.4,28.6-32.6,44.9-51
	c-40.8-26.5-2-87.7-51-114.2c-6.1,6.1-12.2,10.2-20.4,16.3c-2-6.1-8.2-12.2-8.2-16.3c0-42.8,0-87.7,0-130.6c0-30.6-4.1-63.2,2-93.8
	c4.1-28.6,20.4-53,30.6-81.6c12.2-32.6,2-67.3,6.1-100c8.2-8.2,18.4-18.4,26.5-26.5c22.4,10.2,34.7,28.6,28.6,59.2
	c75.5,32.6,104,91.8,93.8,163.2c-20.4,38.8-34.7,69.4-53,102C479.6,371.3,434.8,393.7,428.6,436.6z"/>
</svg>
