<?xml version="1.0" encoding="utf-8"?>
<!-- Generator: Adobe Illustrator 18.1.0, SVG Export Plug-In . SVG Version: 6.00 Build 0)  -->
<!DOCTYPE svg PUBLIC "-//W3C//DTD SVG 1.1//EN" "http://www.w3.org/Graphics/SVG/1.1/DTD/svg11.dtd">
<svg version="1.1" id="Layer_1" xmlns="http://www.w3.org/2000/svg" xmlns:xlink="http://www.w3.org/1999/xlink" x="0px" y="0px"
	 viewBox="248 0 285 612" enable-background="new 248 0 285 612" xml:space="preserve">
<path d="M463.3,544.7c14.3,4.1,24.5,6.1,32.6,8.2c8.2,12.2,8.2,22.4-2,32.6c-28.6,8.2-40.8-24.5-69.4-20.4
	c16.3-63.2-18.4-118.3-20.4-179.5c-18.4,0-22.4,16.3-34.7,24.5c0,57.1,0,112.2,0,169.3c-16.3,10.2-22.4,40.8-57.1,22.4
	c30.6-65.3,14.3-134.6,18.4-204c2-46.9-32.6-85.7-18.4-132.6c-36.7-40.8-10.2-89.8-20.4-136.7c44.9-22.4,55.1-77.5,85.7-102
	c28.6-2,32.6,20.4,46.9,24.5c2,22.4,2,44.9,4.1,65.3c10.2,2,20.4,4.1,28.6,6.1c8.2,40.8,36.7,75.5,22.4,124.4
	c-8.2,2-18.4,6.1-28.6,10.2c26.5,28.6-30.6,63.2,4.1,89.8c32.6,26.5-18.4,53,6.1,85.7C477.6,454.9,463.3,501.8,463.3,544.7z"/>
</svg>
