<?xml version="1.0" encoding="utf-8"?>
<!-- Generator: Adobe Illustrator 18.1.0, SVG Export Plug-In . SVG Version: 6.00 Build 0)  -->
<!DOCTYPE svg PUBLIC "-//W3C//DTD SVG 1.1//EN" "http://www.w3.org/Graphics/SVG/1.1/DTD/svg11.dtd">
<svg version="1.1" id="Layer_1" xmlns="http://www.w3.org/2000/svg" xmlns:xlink="http://www.w3.org/1999/xlink" x="0px" y="0px"
	 viewBox="261 0 261 612" enable-background="new 261 0 261 612" xml:space="preserve">
<path d="M459.2,597.7c-14.3-16.3-28.6-32.6-49-55.1c0-49,0-108.1,0-169.3c-12.2,0-20.4,0-34.7,0c8.2,55.1-36.7,102-16.3,155
	c-22.4,28.6-44.9,42.8-75.5,26.5c0-20.4,18.4-8.2,32.6-22.4c-6.1-87.7,38.8-181.6,18.4-285.6c-8.2-8.2-20.4-22.4-34.7-36.7
	c10.2-42.8,14.3-87.7,49-120.4c12.2-10.2,6.1-22.4,8.2-34.7c6.1-40.8,34.7-44.9,69.4-38.8c10.2,14.3,0,30.6,4.1,44.9
	c18.4,18.4,34.7,34.7,53,53c14.3,24.5-12.2,59.2,24.5,77.5c-69.4,49-14.3,134.6-59.2,191.8C457.2,450.8,430.7,524.3,459.2,597.7z"/>
</svg>
