<?xml version="1.0" encoding="utf-8"?>
<!-- Generator: Adobe Illustrator 18.1.0, SVG Export Plug-In . SVG Version: 6.00 Build 0)  -->
<!DOCTYPE svg PUBLIC "-//W3C//DTD SVG 1.1//EN" "http://www.w3.org/Graphics/SVG/1.1/DTD/svg11.dtd">
<svg version="1.1" id="Layer_1" xmlns="http://www.w3.org/2000/svg" xmlns:xlink="http://www.w3.org/1999/xlink" x="0px" y="0px"
	 viewBox="279 0 241 612" enable-background="new 279 0 241 612" xml:space="preserve">
<path d="M359.3,573.2c0-42.8,0-79.6,0-116.3c2-42.8,2-85.7-18.4-122.4c-26.5-51-16.3-106.1-18.4-165.2
	c18.4-14.3,40.8-32.6,57.1-46.9c-6.1-22.4-22.4-24.5-20.4-38.8c4.1-24.5,22.4-32.6,44.9-42.8c22.4,30.6,4.1,63.2,14.3,93.8
	c4.1,8.2,14.3,4.1,28.6,6.1c22.4,79.6,34.7,155,10.2,242.8c-16.3,55.1-18.4,124.4,10.2,185.6c-30.6,22.4-49-10.2-73.4-14.3
	C383.8,556.9,375.6,563,359.3,573.2z M400.1,512c6.1,0,10.2,0,16.3,0c0-44.9,0-91.8,0-136.7c0-2-8.2-4.1-14.3-8.2
	C400.1,416.2,400.1,463.1,400.1,512z"/>
</svg>
