<?xml version="1.0" encoding="utf-8"?>
<!-- Generator: Adobe Illustrator 18.1.0, SVG Export Plug-In . SVG Version: 6.00 Build 0)  -->
<!DOCTYPE svg PUBLIC "-//W3C//DTD SVG 1.1//EN" "http://www.w3.org/Graphics/SVG/1.1/DTD/svg11.dtd">
<svg version="1.1" id="Layer_1" xmlns="http://www.w3.org/2000/svg" xmlns:xlink="http://www.w3.org/1999/xlink" x="0px" y="0px"
	 viewBox="265 0 251 612" enable-background="new 265 0 251 612" xml:space="preserve">
<path d="M304.2,148.9c18.4-24.5,34.7-32.6,55.1-36.7c2-20.4,2-40.8,4.1-61.2c14.3-12.2,22.4-32.6,46.9-26.5
	c18.4,18.4,4.1,40.8,8.2,63.2c24.5,16.3,49,26.5,59.2,65.3c18.4,67.3,22.4,126.5-2,191.8c-14.3,38.8-24.5,79.6-20.4,124.4
	c4.1,36.7,0,73.4,0,120.4c-34.7-30.6-71.4-16.3-112.2-22.4c0-28.6,0-59.2,0-89.8c0-61.2-2-118.3-28.6-175.4
	C287.9,253,308.3,197.9,304.2,148.9z"/>
</svg>
