<?xml version="1.0" encoding="utf-8"?>
<!-- Generator: Adobe Illustrator 18.1.0, SVG Export Plug-In . SVG Version: 6.00 Build 0)  -->
<!DOCTYPE svg PUBLIC "-//W3C//DTD SVG 1.1//EN" "http://www.w3.org/Graphics/SVG/1.1/DTD/svg11.dtd">
<svg version="1.1" id="Layer_1" xmlns="http://www.w3.org/2000/svg" xmlns:xlink="http://www.w3.org/1999/xlink" x="0px" y="0px"
	 viewBox="243 0 299 612" enable-background="new 243 0 299 612" xml:space="preserve">
<path d="M432.7,491.6c0,26.5,0,55.1,0,79.6c-16.3,12.2-32.6,6.1-46.9,6.1c-16.3-6.1,4.1-32.6-20.4-34.7c-12.2,10.2,0,40.8-38.8,34.7
	c-6.1-42.8-32.6-83.6-26.5-132.6c12.2-79.6-36.7-155-14.3-234.6c14.3-49,57.1-77.5,89.8-112.2c-6.1-26.5,4.1-49,28.6-63.2
	c55.1,40.8,59.2,112.2,102,163.2c10.2,12.2,0,42.8-10.2,69.4c-16.3,40.8-36.7,83.6-26.5,130.6C479.6,434.5,449,459,432.7,491.6z"/>
</svg>
