<?xml version="1.0" encoding="utf-8"?>
<!-- Generator: Adobe Illustrator 18.1.0, SVG Export Plug-In . SVG Version: 6.00 Build 0)  -->
<!DOCTYPE svg PUBLIC "-//W3C//DTD SVG 1.1//EN" "http://www.w3.org/Graphics/SVG/1.1/DTD/svg11.dtd">
<svg version="1.1" id="Layer_1" xmlns="http://www.w3.org/2000/svg" xmlns:xlink="http://www.w3.org/1999/xlink" x="0px" y="0px"
	 viewBox="252 0 270 612" enable-background="new 252 0 270 612" xml:space="preserve">
<path d="M400.1,79.6c14.3,24.5,4.1,46.9,8.2,67.3c42.8,22.4,42.8,22.4,75.5,89.8c4.1,34.7-32.6,49-28.6,87.7
	c26.5,38.8,0,91.8,12.2,144.8c-12.2,4.1-24.5,8.2-34.7,12.2c-24.5,26.5,30.6,38.8,10.2,63.2c-4.1,8.2-6.1,2-14.3,0
	c-36.7-12.2-6.1-55.1-32.6-69.4c-8.2,0-14.3,2-20.4,2c-18.4,20.4,4.1,49-14.3,69.4c-4.1-2-12.2-6.1-12.2-8.2
	c12.2-38.8-20.4-69.4-20.4-106.1c0-34.7-4.1-69.4-14.3-106.1c-14.3-53-16.3-116.3,20.4-167.3c10.2-14.3,14.3-26.5,14.3-40.8
	C353.2,95.9,369.5,81.6,400.1,79.6z"/>
</svg>
