<?xml version="1.0" encoding="utf-8"?>
<!-- Generator: Adobe Illustrator 18.1.0, SVG Export Plug-In . SVG Version: 6.00 Build 0)  -->
<!DOCTYPE svg PUBLIC "-//W3C//DTD SVG 1.1//EN" "http://www.w3.org/Graphics/SVG/1.1/DTD/svg11.dtd">
<svg version="1.1" id="Layer_1" xmlns="http://www.w3.org/2000/svg" xmlns:xlink="http://www.w3.org/1999/xlink" x="0px" y="0px"
	 viewBox="238 0 314 612" enable-background="new 238 0 314 612" xml:space="preserve">
<path d="M536.8,173.4c-10.2,67.3-10.2,67.3-77.5,81.6c12.2,102,26.5,206,38.8,308c-53,14.3-110.2-12.2-153,26.5
	c-10.2-8.2-16.3-12.2-24.5-18.4c-12.2,2-18.4,22.4-38.8,14.3c-8.2-6.1-16.3-14.3-26.5-22.4c12.2-28.6,34.7-59.2,32.6-85.7
	c-8.2-71.4,51-128.5,38.8-199.9c-10.2-10.2-22.4-22.4-34.7-34.7C265.4,132.6,385.8,102,412.3,22.4c12.2,0,24.5,0,38.8,0
	c16.3,24.5,4.1,53,10.2,87.7C483.7,130.6,512.3,153,536.8,173.4z M449,228.5c24.5,2,34.7-14.3,49-34.7c-20.4,0-36.7,0-53,0
	C438.8,210.1,438.8,220.3,449,228.5z M336.8,175.4c-6.1,22.4-16.3,46.9,4.1,77.5C349.1,222.4,349.1,199.9,336.8,175.4z"/>
</svg>
