<?xml version="1.0" encoding="utf-8"?>
<!-- Generator: Adobe Illustrator 18.1.0, SVG Export Plug-In . SVG Version: 6.00 Build 0)  -->
<!DOCTYPE svg PUBLIC "-//W3C//DTD SVG 1.1//EN" "http://www.w3.org/Graphics/SVG/1.1/DTD/svg11.dtd">
<svg version="1.1" id="Layer_1" xmlns="http://www.w3.org/2000/svg" xmlns:xlink="http://www.w3.org/1999/xlink" x="0px" y="0px"
	 viewBox="271 0 244 612" enable-background="new 271 0 244 612" xml:space="preserve">
<path d="M385.8,18.4c26.5-4.1,32.6,14.3,46.9,22.4c2,20.4,4.1,40.8,4.1,61.2c12.2,12.2,22.4,22.4,36.7,36.7
	c2,44.9-10.2,95.9,20.4,132.6c-4.1,32.6-28.6,38.8-38.8,55.1c-8.2,85.7,20.4,165.2,28.6,255c-32.6,4.1-73.4-57.1-106.1,14.3
	c-20.4-26.5-32.6-44.9-55.1-77.5c0-26.5,2-73.4,0-120.4c-2-38.8,12.2-77.5-16.3-116.3c-10.2-14.3-10.2-51,0-63.2
	c26.5-32.6,10.2-71.4,20.4-104C377.6,102,373.6,55.1,385.8,18.4z"/>
</svg>
