<?xml version="1.0" encoding="utf-8"?>
<!-- Generator: Adobe Illustrator 18.1.0, SVG Export Plug-In . SVG Version: 6.00 Build 0)  -->
<!DOCTYPE svg PUBLIC "-//W3C//DTD SVG 1.1//EN" "http://www.w3.org/Graphics/SVG/1.1/DTD/svg11.dtd">
<svg version="1.1" id="Layer_1" xmlns="http://www.w3.org/2000/svg" xmlns:xlink="http://www.w3.org/1999/xlink" x="0px" y="0px"
	 viewBox="259 0 272 612" enable-background="new 259 0 272 612" xml:space="preserve">
<path d="M414.4,24.5c0,24.5,0,42.8,0,63.2c20.4,16.3,40.8,34.7,57.1,49c0,55.1,4.1,102,0,148.9c-8.2,85.7,38.8,167.3,14.3,259.1
	c-28.6-4.1-40.8,30.6-59.2,40.8c-24.5,6.1-30.6-8.2-40.8-14.3c-6.1,6.1-12.2,12.2-18.4,16.3c-20.4-12.2-40.8-24.5-65.3-38.8
	c-14.3-73.4,20.4-140.8,18.4-214.2c0-71.4-34.7-136.7-20.4-210.1c12.2-16.3,36.7-24.5,36.7-57.1C340.9,28.6,371.5,20.4,414.4,24.5z"
	/>
</svg>
