<?xml version="1.0" encoding="utf-8"?>
<!-- Generator: Adobe Illustrator 18.1.0, SVG Export Plug-In . SVG Version: 6.00 Build 0)  -->
<!DOCTYPE svg PUBLIC "-//W3C//DTD SVG 1.1//EN" "http://www.w3.org/Graphics/SVG/1.1/DTD/svg11.dtd">
<svg version="1.1" id="Layer_1" xmlns="http://www.w3.org/2000/svg" xmlns:xlink="http://www.w3.org/1999/xlink" x="0px" y="0px"
	 viewBox="236 0 297 612" enable-background="new 236 0 297 612" xml:space="preserve">
<path d="M477.6,183.6c30.6,57.1-44.9,114.2,4.1,171.4c2,57.1-12.2,116.3,24.5,163.2c-36.7,61.2-97.9,53-140.8,81.6
	c-24.5-12.2-36.7-42.8-67.3-42.8c38.8-89.8-14.3-187.7,36.7-271.3c-16.3-26.5-18.4-55.1-40.8-73.4c0-24.5,0-49,0-75.5
	c30.6-28.6,51-63.2,59.2-102c34.7-6.1,69.4,0,69.4,30.6C422.5,114.2,469.4,132.6,477.6,183.6z"/>
</svg>
