<?xml version="1.0" encoding="utf-8"?>
<!-- Generator: Adobe Illustrator 18.1.0, SVG Export Plug-In . SVG Version: 6.00 Build 0)  -->
<!DOCTYPE svg PUBLIC "-//W3C//DTD SVG 1.1//EN" "http://www.w3.org/Graphics/SVG/1.1/DTD/svg11.dtd">
<svg version="1.1" id="Layer_1" xmlns="http://www.w3.org/2000/svg" xmlns:xlink="http://www.w3.org/1999/xlink" x="0px" y="0px"
	 viewBox="262 0 265 612" enable-background="new 262 0 265 612" xml:space="preserve">
<path d="M371.5,100c-2-36.7,4.1-61.2,36.7-69.4c22.4,2,24.5,24.5,36.7,28.6c4.1,22.4-10.2,28.6-16.3,38.8
	c10.2,10.2,22.4,20.4,28.6,26.5c26.5,49-10.2,91.8,6.1,138.7c16.3,42.8-2,93.8,18.4,142.8c16.3,42.8,4.1,97.9,4.1,140.8
	c-36.7,59.2-100,8.2-132.6,40.8c-14.3-14.3-30.6-30.6-49-51c6.1-10.2-2-34.7,6.1-53c10.2-28.6,6.1-55.1,6.1-81.6
	c2-30.6,2-63.2,0-93.8c-2-22.4,24.5-40.8,4.1-71.4c-14.3-18.4-2-55.1-2-89.8C332.8,132.6,355.2,114.2,371.5,100z"/>
</svg>
