<?xml version="1.0" encoding="utf-8"?>
<!-- Generator: Adobe Illustrator 18.1.0, SVG Export Plug-In . SVG Version: 6.00 Build 0)  -->
<!DOCTYPE svg PUBLIC "-//W3C//DTD SVG 1.1//EN" "http://www.w3.org/Graphics/SVG/1.1/DTD/svg11.dtd">
<svg version="1.1" id="Layer_1" xmlns="http://www.w3.org/2000/svg" xmlns:xlink="http://www.w3.org/1999/xlink" x="0px" y="0px"
	 viewBox="248 0 272 612" enable-background="new 248 0 272 612" xml:space="preserve">
<path d="M416.4,530.4c20.4,12.2,36.7,22.4,53,34.7c-32.6,20.4-77.5-12.2-104,24.5c-8.2-8.2-18.4-18.4-26.5-26.5
	c-6.1-63.2,2-124.4-16.3-189.7c-12.2-38.8-16.3-89.8,14.3-132.6c20.4-28.6-26.5-53-18.4-81.6c4.1-22.4,22.4-30.6,36.7-46.9
	c-6.1-8.2-10.2-16.3-16.3-26.5c8.2-18.4,16.3-36.7,24.5-55.1c34.7-14.3,57.1-2,65.3,20.4c8.2,22.4-4.1,26.5-12.2,40.8
	c30.6,20.4,36.7,57.1,61.2,87.7c-24.5,36.7-30.6,75.5-24.5,114.2c6.1,42.8-4.1,85.7-20.4,122.4S412.3,487.6,416.4,530.4z M394,475.3
	c-16.3,2-26.5-2-34.7,10.2c-2,22.4-8.2,44.9,6.1,67.3c10.2-2,20.4,4.1,28.6-10.2C394,524.3,394,503.9,394,475.3z"/>
</svg>
