<?xml version="1.0" encoding="utf-8"?>
<!-- Generator: Adobe Illustrator 18.1.0, SVG Export Plug-In . SVG Version: 6.00 Build 0)  -->
<!DOCTYPE svg PUBLIC "-//W3C//DTD SVG 1.1//EN" "http://www.w3.org/Graphics/SVG/1.1/DTD/svg11.dtd">
<svg version="1.1" id="Layer_1" xmlns="http://www.w3.org/2000/svg" xmlns:xlink="http://www.w3.org/1999/xlink" x="0px" y="0px"
	 viewBox="269 0 261.5 612" enable-background="new 269 0 261.5 612" xml:space="preserve">
<path d="M440.9,577.3c-16.3,0-22.4,2-34.7,2c-8.2-55.1,32.6-108.1,6.1-169.3c-2-4.1-12.2,2-22.4,0c-10.2,44.9-36.7,87.7-24.5,136.7
	c-16.3,14.3-24.5,40.8-53,28.6c30.6-114.2,67.3-226.4,49-348.8c-6.1-14.3-24.5,4.1-30.6-14.3c22.4-79.6,22.4-79.6,53-114.2
	c-4.1-4.1-8.2-8.2-14.3-14.3c-6.1-14.3,14.3-14.3,14.3-26.5c0-8.2-2-18.4,14.3-26.5c18.4-4.1,26.5,16.3,40.8,28.6
	c0,20.4,2,40.8,2,63.2c10.2,2,18.4,4.1,28.6,6.1c2,4.1,8.2,10.2,8.2,14.3c-4.1,28.6,6.1,57.1-14.3,87.7
	c-12.2,18.4-12.2,57.1,8.2,87.7c16.3,26.5,10.2,57.1,2,87.7C453.1,461,432.7,514.1,440.9,577.3z"/>
</svg>
